<?xml version="1.0" standalone="no"?>
<!DOCTYPE svg PUBLIC "-//W3C//DTD SVG 20010904//EN"
 "http://www.w3.org/TR/2001/REC-SVG-20010904/DTD/svg10.dtd">
<svg version="1.0" xmlns="http://www.w3.org/2000/svg"
 width="1799.000000pt" height="516.000000pt" viewBox="0 0 1799.000000 516.000000"
 preserveAspectRatio="xMidYMid meet">

<g transform="translate(0.000000,516.000000) scale(0.100000,-0.100000)"
fill="#000000" stroke="none">
<path d="M13336 4399 c-57 -45 -80 -133 -55 -210 33 -98 109 -107 154 -18 40
76 37 168 -6 223 -25 31 -57 33 -93 5z"/>
<path d="M5887 4385 c-171 -34 -312 -143 -385 -297 -52 -108 -72 -209 -72
-362 0 -153 25 -267 81 -380 78 -158 162 -254 483 -550 189 -175 257 -284 278
-448 29 -231 -43 -350 -211 -352 -91 0 -151 29 -189 92 -25 44 -27 56 -32 202
l-5 155 -202 3 -203 2 0 -147 c1 -361 119 -569 374 -661 61 -21 93 -26 221
-29 179 -6 261 8 372 63 104 52 181 129 232 236 54 111 71 188 78 343 14 338
-98 575 -401 847 -348 312 -431 427 -443 613 -11 159 36 260 130 286 63 17
171 8 204 -17 69 -51 93 -125 93 -285 l0 -99 203 2 202 3 3 80 c6 160 -26 324
-88 445 -13 25 -53 75 -89 111 -77 77 -159 120 -273 143 -93 19 -266 19 -361
1z"/>
<path d="M7395 4383 c-203 -43 -359 -179 -423 -370 -43 -126 -45 -151 -49
-933 -5 -931 -1 -996 85 -1169 63 -129 169 -218 322 -271 88 -31 337 -40 449
-16 170 36 312 142 383 286 86 175 90 229 85 1172 -3 747 -4 776 -24 853 -39
145 -81 223 -170 309 -62 60 -188 122 -288 141 -97 19 -279 18 -370 -2z m180
-527 c16 -16 18 -16 37 1 16 14 37 18 107 18 78 0 90 -3 117 -25 42 -34 54
-64 54 -132 0 -82 -39 -158 -81 -158 -23 0 -63 -49 -83 -102 -15 -38 -16 -94
-14 -473 l3 -430 27 -42 c15 -23 48 -56 73 -73 58 -40 75 -74 75 -149 0 -74
-10 -97 -62 -138 -35 -29 -47 -33 -100 -33 -60 0 -128 23 -128 43 0 6 -12 0
-26 -14 -23 -21 -35 -24 -109 -24 -79 0 -86 2 -114 29 -69 66 -82 164 -32 233
16 22 44 51 63 64 40 28 53 44 75 89 16 31 17 81 18 467 0 333 -3 435 -12 445
-7 6 -13 20 -13 29 0 9 -19 33 -42 52 -105 88 -118 109 -118 183 0 52 16 88
57 125 39 37 48 39 135 36 55 -3 81 -8 93 -21z"/>
<path d="M13069 4376 c-36 -18 -51 -54 -44 -110 10 -79 65 -165 117 -181 50
-17 96 66 83 147 -8 44 -76 136 -111 149 -12 4 -31 2 -45 -5z"/>
<path d="M1127 4363 c-8 -7 -10 -2695 -2 -2715 4 -10 47 -12 215 -10 l210 3 2
552 3 552 185 5 c164 5 195 9 271 33 199 62 316 193 371 416 20 78 22 113 22
361 -1 249 -3 283 -23 364 -44 182 -137 304 -285 376 -126 62 -196 70 -611 70
-193 0 -355 -3 -358 -7z m377 -420 c17 -15 49 -45 71 -65 l40 -38 65 11 c47 7
87 7 143 -1 l78 -11 58 56 c63 61 90 82 106 80 63 -6 80 -53 71 -196 -7 -115
-7 -106 0 -240 5 -87 3 -101 -20 -150 -13 -30 -43 -71 -65 -91 -46 -41 -135
-88 -167 -88 -13 0 -26 -4 -29 -10 -3 -5 -44 -10 -91 -10 -174 0 -305 72 -383
210 -19 33 -26 145 -13 206 7 33 8 73 1 124 -14 104 -3 197 25 225 29 29 69
25 110 -12z"/>
<path d="M2630 3005 l0 -1365 590 0 590 0 -2 193 -3 192 -372 3 -373 2 0 420
0 420 300 0 300 0 -2 193 -3 192 -298 3 -297 2 2 358 3 357 373 3 372 2 0 195
0 195 -590 0 -590 0 0 -1365z"/>
<path d="M3954 4357 c-2 -7 -3 -94 -2 -192 l3 -180 223 -3 222 -2 0 -1170 0
-1170 220 0 220 0 0 1170 0 1170 223 2 222 3 0 190 0 190 -663 3 c-534 2 -664
0 -668 -11z"/>
<path d="M8530 3005 l0 -1364 190 -3 190 -3 0 993 c0 574 4 992 9 992 5 0 16
-30 25 -67 8 -38 43 -171 76 -298 80 -300 103 -390 134 -505 13 -52 39 -149
56 -215 17 -66 54 -205 81 -310 28 -104 68 -257 90 -340 21 -82 44 -171 51
-197 l11 -47 219 -3 c121 -2 222 -1 224 1 2 2 4 618 4 1368 l0 1363 -190 0
-190 0 0 -817 c0 -495 -4 -813 -9 -807 -5 5 -62 212 -126 459 -64 248 -131
509 -150 580 -18 72 -59 229 -90 350 -31 121 -59 223 -62 228 -2 4 -125 7
-274 7 l-269 0 0 -1365z"/>
<path d="M10545 4358 c-6 -18 -27 -143 -80 -473 -25 -154 -52 -318 -60 -365
-8 -47 -38 -224 -65 -395 -28 -170 -68 -418 -90 -550 -22 -132 -64 -392 -95
-577 -30 -186 -55 -342 -55 -348 0 -6 69 -10 199 -10 l198 0 22 143 c12 78 29
196 39 262 l18 120 246 3 246 2 6 -47 c8 -53 54 -362 64 -433 l7 -45 218 -3
217 -2 -5 22 c-3 13 -23 136 -45 273 -23 138 -72 439 -110 670 -69 419 -101
615 -185 1135 -25 151 -48 289 -50 305 -3 17 -15 84 -26 150 -11 66 -22 132
-25 148 l-6 27 -289 0 c-223 0 -291 -3 -294 -12z m314 -718 c17 -124 38 -268
46 -320 27 -177 105 -738 105 -759 0 -21 -4 -21 -191 -21 l-192 0 7 48 c4 26
13 94 21 152 8 58 21 152 30 210 50 353 125 899 125 920 1 69 21 -25 49 -230z"/>
<path d="M11780 3005 l0 -1365 570 0 570 0 -2 193 -3 192 -352 3 -353 2 -2
1168 -3 1167 -212 3 -213 2 0 -1365z"/>
<path d="M13780 4175 l0 -195 225 0 225 0 0 -1170 0 -1170 215 0 215 0 2 1168
3 1167 225 5 225 5 0 190 0 190 -667 3 -668 2 0 -195z"/>
<path d="M15212 4358 c3 -7 121 -360 262 -784 l256 -771 0 -582 0 -581 215 0
215 0 0 570 c0 508 -2 571 -16 577 -26 10 -131 142 -167 212 -73 139 -100 298
-78 458 l12 88 -41 140 c-23 77 -56 192 -75 255 -18 63 -44 153 -58 200 -14
47 -35 118 -47 158 l-21 72 -230 0 c-181 0 -230 -3 -227 -12z"/>
<path d="M16450 4350 c-13 -9 -12 -12 5 -22 18 -11 16 -13 -24 -23 -25 -6 -46
-15 -48 -21 -2 -5 25 -29 61 -52 47 -32 80 -45 127 -53 77 -12 76 -11 82 -51
4 -25 -4 -52 -31 -108 -38 -78 -131 -181 -284 -313 -75 -65 -125 -130 -134
-177 -4 -17 -15 -35 -24 -40 -27 -14 -32 -40 -15 -67 12 -17 22 -22 39 -17 20
5 25 0 35 -27 16 -47 14 -71 -12 -120 -13 -24 -27 -62 -31 -84 -4 -22 -18 -59
-32 -82 -28 -48 -30 -79 -10 -128 17 -40 25 -42 57 -16 22 17 23 22 12 50 -12
33 -7 75 8 65 5 -3 9 -15 9 -28 0 -33 33 -60 64 -52 36 9 42 39 15 76 -21 28
-22 34 -11 90 7 41 21 74 42 99 16 22 37 59 46 83 8 23 34 63 58 88 24 25 53
62 65 82 13 22 51 57 93 84 73 49 159 143 213 236 27 45 36 52 80 63 27 7 54
11 58 8 4 -3 7 -23 5 -46 -4 -58 22 -62 46 -8 17 36 17 42 2 71 -8 18 -13 37
-10 42 7 12 47 -1 57 -18 11 -18 51 -18 67 1 17 21 6 31 -56 55 -48 18 -61 19
-97 8 -23 -6 -46 -15 -51 -20 -31 -26 -61 16 -73 103 -4 30 -1 37 21 47 26 11
41 45 34 79 -7 42 -127 75 -179 49 -42 -21 -43 -21 -82 14 -40 35 -142 90
-166 90 -9 0 -23 -5 -31 -10z"/>
<path d="M13536 4160 c-60 -53 -80 -126 -55 -199 22 -62 75 -67 129 -13 66 65
74 160 19 218 -30 32 -51 30 -93 -6z"/>
<path d="M12900 4100 c-14 -14 -20 -33 -20 -65 0 -119 126 -210 195 -140 32
31 31 58 0 121 -46 89 -130 129 -175 84z"/>
<path d="M13270 4013 c-63 -23 -181 -200 -204 -305 -7 -29 14 -90 33 -102 26
-17 74 -7 142 30 71 36 78 38 169 39 119 0 150 15 150 72 0 69 -119 209 -215
254 -42 19 -51 21 -75 12z"/>
<path d="M13137 3383 c-4 -3 -7 -397 -7 -875 l0 -868 215 0 215 0 0 875 0 875
-208 0 c-115 0 -212 -3 -215 -7z"/>
<path d="M6882 1218 c-60 -13 -136 -87 -152 -147 -35 -132 55 -259 191 -269
164 -12 273 121 229 279 -11 39 -65 101 -108 123 -38 19 -110 26 -160 14z
m143 -51 c137 -77 114 -283 -36 -328 -122 -37 -254 90 -219 212 34 118 155
173 255 116z"/>
<path d="M2020 1009 c0 -195 1 -210 18 -207 15 3 17 21 20 182 l2 178 71 -91
c39 -50 74 -91 79 -91 5 0 38 38 72 85 35 46 66 84 71 85 4 0 7 -79 7 -176 0
-162 1 -175 18 -172 15 3 17 22 20 211 l2 207 -24 0 c-18 0 -41 -21 -96 -91
-39 -50 -75 -87 -79 -83 -5 5 -36 46 -70 92 -48 64 -67 82 -86 82 l-25 0 0
-211z"/>
<path d="M2927 1213 c-9 -15 -136 -358 -142 -385 -5 -21 -4 -28 8 -28 21 0 31
16 62 103 l28 78 65 -3 64 -3 32 -85 c21 -56 37 -86 49 -88 10 -2 17 3 17 12
0 8 -31 101 -70 207 -38 105 -70 193 -70 195 0 7 -39 4 -43 -3z m46 -131 c26
-66 24 -72 -28 -72 -25 0 -45 4 -45 9 0 22 44 121 50 114 4 -4 14 -27 23 -51z"/>
<path d="M3467 1213 c-17 -16 -3 -23 43 -23 l50 0 2 -192 c3 -185 4 -193 23
-193 19 0 20 8 23 193 l2 192 50 0 c38 0 50 4 50 15 0 12 -20 15 -118 15 -65
0 -122 -3 -125 -7z"/>
<path d="M4189 1200 c-70 -37 -119 -115 -119 -190 0 -81 59 -166 135 -196 60
-22 149 -16 199 15 33 21 36 25 23 39 -14 13 -18 12 -42 -6 -50 -40 -147 -37
-201 7 -76 61 -90 183 -29 253 59 68 134 85 212 47 42 -20 81 -20 68 1 -4 6
-24 19 -45 30 -52 27 -151 27 -201 0z"/>
<path d="M4840 1010 c0 -196 1 -211 18 -208 15 3 17 17 20 101 l3 98 92 -3 92
-3 3 -98 c2 -87 5 -98 20 -95 15 3 17 24 20 211 2 202 2 207 -18 207 -19 0
-20 -6 -20 -95 l0 -95 -95 0 -94 0 -3 92 c-3 79 -6 93 -20 96 -17 3 -18 -12
-18 -208z"/>
<path d="M6030 1209 c0 -6 28 -59 63 -117 61 -106 62 -108 67 -197 4 -75 8
-90 23 -93 15 -3 17 6 17 77 l0 80 70 120 c39 66 70 125 70 131 0 5 -8 10 -18
10 -18 0 -48 -44 -108 -154 -30 -57 -22 -63 -98 69 -34 58 -55 85 -68 85 -10
0 -18 -5 -18 -11z"/>
<path d="M7567 1213 c-4 -3 -7 -71 -7 -150 0 -156 8 -190 55 -233 22 -21 36
-25 88 -25 71 0 106 19 132 72 22 46 18 338 -5 338 -12 0 -16 -26 -20 -155 -6
-172 -12 -194 -66 -216 -43 -18 -74 -10 -110 27 l-29 30 -3 160 c-3 118 -7
159 -16 159 -7 0 -16 -3 -19 -7z"/>
<path d="M8274 1207 c-2 -7 -3 -100 -2 -207 3 -165 5 -195 18 -195 11 0 16 17
20 70 4 62 7 70 26 73 24 3 52 -27 96 -102 18 -31 34 -46 48 -46 29 0 25 13
-20 80 l-41 60 46 43 c41 40 45 48 45 92 0 59 -27 107 -74 129 -42 20 -154 22
-162 3z m135 -31 c105 -55 67 -195 -51 -196 l-48 0 0 105 0 105 35 0 c20 0 49
-7 64 -14z"/>
<path d="M9437 1213 c-10 -10 -8 -386 2 -402 11 -17 166 -11 197 8 77 50 86
171 16 228 -13 10 -13 17 -4 38 19 42 14 74 -17 106 -28 27 -34 29 -109 29
-43 0 -82 -3 -85 -7z m162 -49 c19 -25 19 -45 -2 -71 -6 -8 -33 -13 -68 -13
l-59 0 0 48 c0 27 3 52 7 55 3 4 28 7 54 7 39 0 51 -5 68 -26z m-17 -124 c77
-22 103 -111 49 -169 -27 -29 -34 -31 -95 -31 l-66 0 0 98 c0 54 3 102 7 105
10 10 63 8 105 -3z"/>
<path d="M10115 1208 c-3 -8 -4 -101 -3 -208 l3 -195 108 -3 c102 -3 107 -2
107 18 0 19 -6 20 -90 20 l-91 0 3 78 3 77 88 5 c48 3 87 9 87 15 0 6 -39 11
-90 13 l-90 3 0 79 0 79 93 3 c129 4 118 22 -16 26 -81 2 -109 0 -112 -10z"/>
<path d="M10793 1198 c-28 -31 -35 -60 -23 -93 13 -34 29 -48 95 -80 49 -24
85 -66 85 -100 0 -31 -29 -72 -60 -85 -42 -18 -96 7 -112 50 -11 32 -15 35
-37 21 -19 -13 -6 -45 35 -80 28 -25 44 -31 80 -31 151 0 184 177 46 247 -86
43 -93 51 -90 91 2 30 8 38 30 46 23 8 32 6 51 -12 42 -40 75 -18 36 24 -31
33 -106 34 -136 2z"/>
<path d="M11380 1206 c0 -11 14 -16 48 -18 l47 -3 3 -193 c2 -177 4 -193 20
-190 15 3 17 23 20 196 l2 192 50 0 c38 0 50 4 50 15 0 13 -20 15 -120 15 -98
0 -120 -3 -120 -14z"/>
<path d="M12542 1013 l3 -208 86 0 c78 0 89 3 122 28 61 46 68 142 15 199 -25
27 -28 35 -19 55 20 44 13 79 -20 107 -27 23 -39 26 -110 26 l-79 0 2 -207z
m159 151 c22 -23 23 -27 8 -52 -13 -25 -20 -27 -74 -27 l-60 0 -3 39 c-5 59 1
66 56 66 39 0 53 -5 73 -26z m-19 -124 c79 -22 105 -114 49 -171 -27 -26 -36
-29 -95 -29 l-66 0 0 99 c0 70 4 101 13 104 21 9 60 7 99 -3z"/>
<path d="M13207 1214 c-4 -4 -7 -75 -7 -158 0 -172 10 -206 70 -238 65 -34
145 -18 189 38 19 25 21 39 21 196 0 156 -1 169 -17 166 -16 -3 -19 -21 -23
-165 -5 -152 -6 -163 -28 -186 -32 -33 -64 -40 -106 -23 -54 22 -60 44 -66
215 -5 144 -12 176 -33 155z"/>
<path d="M13908 1214 c-11 -10 -10 -386 1 -403 7 -11 26 -13 84 -8 89 6 144
32 184 84 26 33 28 43 28 124 0 82 -2 89 -31 126 -43 54 -94 77 -184 81 -41 2
-78 0 -82 -4z m173 -50 c15 -7 41 -31 56 -51 24 -31 28 -46 28 -103 0 -58 -4
-71 -29 -104 -35 -46 -79 -66 -146 -66 l-50 0 0 168 c0 93 3 172 8 176 10 11
100 -2 133 -20z"/>
<path d="M14625 1208 c-3 -7 -4 -101 -3 -208 l3 -195 81 2 c103 2 153 25 195
90 25 40 29 57 29 114 0 59 -4 72 -32 115 -44 63 -90 86 -189 92 -62 4 -80 1
-84 -10z m173 -42 c82 -42 115 -151 72 -236 -29 -58 -72 -84 -147 -88 l-63 -4
0 177 0 178 56 -7 c31 -3 68 -13 82 -20z"/>
<path d="M15320 1210 c0 -6 15 -34 33 -63 95 -149 107 -178 107 -266 0 -73 2
-82 18 -79 14 3 18 18 22 93 6 89 7 92 68 196 34 58 62 111 62 118 0 6 -8 11
-17 11 -12 0 -35 -30 -67 -88 -27 -48 -54 -93 -59 -100 -8 -10 -25 13 -69 88
-43 72 -64 100 -79 100 -10 0 -19 -5 -19 -10z"/>
</g>
</svg>
